#Comment line ignore any data following # character 
#Hierarchical Translation and Rotation (.htr) file 
[Header]	
#Header keywords are followed by a single value 
FileType HTR		#Single word string
DataType HTRS		#Translation followed by rotation and scale data
FileVersion 1		#integer
NumSegments 84		#integer
NumFrames 2		#integer
DataFrameRate 30		#integer, data frame rate in this file
EulerRotationOrder ZYX
CalibrationUnits mm
RotationUnits Degrees
GlobalAxisofGravity Y
BoneLengthAxis Y
ScaleFactor 1.00
[SegmentNames&Hierarchy]
#CHILD	PARENT
MASTER GLOBAL
root MASTER
chest root
L_mid_tent01 root
R_mid_tent01 root
spine01 root
Bip01_Neck chest
L_humerus chest
R_humerus chest
weapon_bone chest
Bip01_Head Bip01_Neck
eye_left_bone Bip01_Head
eye_right_bone Bip01_Head
L_forearm L_humerus
L_front_hand L_forearm
L_weapon_bone L_forearm
L_front_hand01_01 L_front_hand
L_front_hand02_01 L_front_hand
L_front_hand03_01 L_front_hand
L_front_hand01_02 L_front_hand01_01
L_front_hand02_02 L_front_hand02_01
L_front_hand03_02 L_front_hand03_01
R_forearm R_humerus
R_front_hand R_forearm
R_weapon_bone R_forearm
R_front_hand01_01 R_front_hand
R_front_hand02_01 R_front_hand
R_front_hand03_01 R_front_hand
R_front_hand01_02 R_front_hand01_01
R_front_hand02_02 R_front_hand02_01
R_front_hand03_02 R_front_hand03_01
null_rope01_connect L_mid_tent01
Rope1_Seg01 null_rope01_connect
Rope1_Seg02 Rope1_Seg01
Rope1_Seg03 Rope1_Seg02
Rope1_Seg04 Rope1_Seg03
Rope1_Seg05 Rope1_Seg04
Rope1_Seg06 Rope1_Seg05
Rope1_Seg07 Rope1_Seg06
Rope1_Seg09 Rope1_Seg07
L_mid_hand01 Rope1_Seg09
L_mid_hand02 Rope1_Seg09
L_mid_hand03 Rope1_Seg09
null_rope02_connect R_mid_tent01
Rope2_Seg01 null_rope02_connect
Rope2_Seg02 Rope2_Seg01
Rope2_Seg03 Rope2_Seg02
Rope2_Seg04 Rope2_Seg03
Rope2_Seg05 Rope2_Seg04
Rope2_Seg06 Rope2_Seg05
Rope2_Seg07 Rope2_Seg06
Rope2_Seg09 Rope2_Seg07
R_mid_hand01 Rope2_Seg09
R_mid_hand02 Rope2_Seg09
R_mid_hand03 Rope2_Seg09
spine02 spine01
spine03 spine02
pelvis spine03
null_rope03_connect pelvis
null_rope04_connect pelvis
Rope3_Seg01 null_rope03_connect
Rope3_Seg02 Rope3_Seg01
Rope3_Seg03 Rope3_Seg02
Rope3_Seg04 Rope3_Seg03
Rope3_Seg05 Rope3_Seg04
Rope3_Seg06 Rope3_Seg05
Rope3_Seg07 Rope3_Seg06
Rope3_Seg08 Rope3_Seg07
Rope3_Seg09 Rope3_Seg08
R_rear_hand01 Rope3_Seg09
R_rear_hand02 Rope3_Seg09
R_rear_hand03 Rope3_Seg09
Rope4_Seg01 null_rope04_connect
Rope4_Seg02 Rope4_Seg01
Rope4_Seg03 Rope4_Seg02
Rope4_Seg04 Rope4_Seg03
Rope4_Seg05 Rope4_Seg04
Rope4_Seg06 Rope4_Seg05
Rope4_Seg07 Rope4_Seg06
Rope4_Seg08 Rope4_Seg07
Rope4_Seg09 Rope4_Seg08
L_rear_hand01 Rope4_Seg09
L_rear_hand02 Rope4_Seg09
L_rear_hand03 Rope4_Seg09
[BasePosition]
#SegmentName Tx, Ty, Tz, Rx, Ry, Rz, BoneLength
MASTER 0.000000 0.000000 0.000000 -90.000000 0.000000 0.000000 10.000000 
root 0.000000 0.000000 0.000000 0.000000 0.000000 0.000000 10.000000 
chest 0.000000 0.000000 0.000000 0.000000 0.000000 0.000000 10.000000 
L_mid_tent01 0.000000 0.000000 0.000000 0.000000 0.000000 0.000000 10.000000 
R_mid_tent01 0.000000 0.000000 0.000000 0.000000 0.000000 0.000000 10.000000 
spine01 0.000000 0.000000 0.000000 0.000000 0.000000 0.000000 10.000000 
Bip01_Neck 0.000000 0.000000 0.000000 0.000000 0.000000 0.000000 10.000000 
L_humerus 0.000000 0.000000 0.000000 0.000000 0.000000 0.000000 10.000000 
R_humerus 0.000000 0.000000 0.000000 0.000000 0.000000 0.000000 10.000000 
weapon_bone 0.000000 0.000000 0.000000 0.000000 0.000000 0.000000 10.000000 
Bip01_Head 0.000000 0.000000 0.000000 0.000000 0.000000 0.000000 10.000000 
eye_left_bone 0.000000 0.000000 0.000000 0.000000 0.000000 0.000000 10.000000 
eye_right_bone 0.000000 0.000000 0.000000 0.000000 0.000000 0.000000 10.000000 
L_forearm 0.000000 0.000000 0.000000 0.000000 0.000000 0.000000 10.000000 
L_front_hand 0.000000 0.000000 0.000000 0.000000 0.000000 0.000000 10.000000 
L_weapon_bone 0.000000 0.000000 0.000000 0.000000 0.000000 0.000000 10.000000 
L_front_hand01_01 0.000000 0.000000 0.000000 0.000000 0.000000 0.000000 10.000000 
L_front_hand02_01 0.000000 0.000000 0.000000 0.000000 0.000000 0.000000 10.000000 
L_front_hand03_01 0.000000 0.000000 0.000000 0.000000 0.000000 0.000000 10.000000 
L_front_hand01_02 0.000000 0.000000 0.000000 0.000000 0.000000 0.000000 10.000000 
L_front_hand02_02 0.000000 0.000000 0.000000 0.000000 0.000000 0.000000 10.000000 
L_front_hand03_02 0.000000 0.000000 0.000000 0.000000 0.000000 0.000000 10.000000 
R_forearm 0.000000 0.000000 0.000000 0.000000 0.000000 0.000000 10.000000 
R_front_hand 0.000000 0.000000 0.000000 0.000000 0.000000 0.000000 10.000000 
R_weapon_bone 0.000000 0.000000 0.000000 0.000000 0.000000 0.000000 10.000000 
R_front_hand01_01 0.000000 0.000000 0.000000 0.000000 0.000000 0.000000 10.000000 
R_front_hand02_01 0.000000 0.000000 0.000000 0.000000 0.000000 0.000000 10.000000 
R_front_hand03_01 0.000000 0.000000 0.000000 0.000000 0.000000 0.000000 10.000000 
R_front_hand01_02 0.000000 0.000000 0.000000 0.000000 0.000000 0.000000 10.000000 
R_front_hand02_02 0.000000 0.000000 0.000000 0.000000 0.000000 0.000000 10.000000 
R_front_hand03_02 0.000000 0.000000 0.000000 0.000000 0.000000 0.000000 10.000000 
null_rope01_connect 0.000000 0.000000 0.000000 0.000000 0.000000 0.000000 10.000000 
Rope1_Seg01 0.000000 0.000000 0.000000 0.000000 0.000000 0.000000 10.000000 
Rope1_Seg02 0.000000 0.000000 0.000000 0.000000 0.000000 0.000000 10.000000 
Rope1_Seg03 0.000000 0.000000 0.000000 0.000000 0.000000 0.000000 10.000000 
Rope1_Seg04 0.000000 0.000000 0.000000 0.000000 0.000000 0.000000 10.000000 
Rope1_Seg05 0.000000 0.000000 0.000000 0.000000 0.000000 0.000000 10.000000 
Rope1_Seg06 0.000000 0.000000 0.000000 0.000000 0.000000 0.000000 10.000000 
Rope1_Seg07 0.000000 0.000000 0.000000 0.000000 0.000000 0.000000 10.000000 
Rope1_Seg09 0.000000 0.000000 0.000000 0.000000 0.000000 0.000000 10.000000 
L_mid_hand01 0.000000 0.000000 0.000000 0.000000 0.000000 0.000000 10.000000 
L_mid_hand02 0.000000 0.000000 0.000000 0.000000 0.000000 0.000000 10.000000 
L_mid_hand03 0.000000 0.000000 0.000000 0.000000 0.000000 0.000000 10.000000 
null_rope02_connect 0.000000 0.000000 0.000000 0.000000 0.000000 0.000000 10.000000 
Rope2_Seg01 0.000000 0.000000 0.000000 0.000000 0.000000 0.000000 10.000000 
Rope2_Seg02 0.000000 0.000000 0.000000 0.000000 0.000000 0.000000 10.000000 
Rope2_Seg03 0.000000 0.000000 0.000000 0.000000 0.000000 0.000000 10.000000 
Rope2_Seg04 0.000000 0.000000 0.000000 0.000000 0.000000 0.000000 10.000000 
Rope2_Seg05 0.000000 0.000000 0.000000 0.000000 0.000000 0.000000 10.000000 
Rope2_Seg06 0.000000 0.000000 0.000000 0.000000 0.000000 0.000000 10.000000 
Rope2_Seg07 0.000000 0.000000 0.000000 0.000000 0.000000 0.000000 10.000000 
Rope2_Seg09 0.000000 0.000000 0.000000 0.000000 0.000000 0.000000 10.000000 
R_mid_hand01 0.000000 0.000000 0.000000 0.000000 0.000000 0.000000 10.000000 
R_mid_hand02 0.000000 0.000000 0.000000 0.000000 0.000000 0.000000 10.000000 
R_mid_hand03 0.000000 0.000000 0.000000 0.000000 0.000000 0.000000 10.000000 
spine02 0.000000 0.000000 0.000000 0.000000 0.000000 0.000000 10.000000 
spine03 0.000000 0.000000 0.000000 0.000000 0.000000 0.000000 10.000000 
pelvis 0.000000 0.000000 0.000000 0.000000 0.000000 0.000000 10.000000 
null_rope03_connect 0.000000 0.000000 0.000000 0.000000 0.000000 0.000000 10.000000 
null_rope04_connect 0.000000 0.000000 0.000000 0.000000 0.000000 0.000000 10.000000 
Rope3_Seg01 0.000000 0.000000 0.000000 0.000000 0.000000 0.000000 10.000000 
Rope3_Seg02 0.000000 0.000000 0.000000 0.000000 0.000000 0.000000 10.000000 
Rope3_Seg03 0.000000 0.000000 0.000000 0.000000 0.000000 0.000000 10.000000 
Rope3_Seg04 0.000000 0.000000 0.000000 0.000000 0.000000 0.000000 10.000000 
Rope3_Seg05 0.000000 0.000000 0.000000 0.000000 0.000000 0.000000 10.000000 
Rope3_Seg06 0.000000 0.000000 0.000000 0.000000 0.000000 0.000000 10.000000 
Rope3_Seg07 0.000000 0.000000 0.000000 0.000000 0.000000 0.000000 10.000000 
Rope3_Seg08 0.000000 0.000000 0.000000 0.000000 0.000000 0.000000 10.000000 
Rope3_Seg09 0.000000 0.000000 0.000000 0.000000 0.000000 0.000000 10.000000 
R_rear_hand01 0.000000 0.000000 0.000000 0.000000 0.000000 0.000000 10.000000 
R_rear_hand02 0.000000 0.000000 0.000000 0.000000 0.000000 0.000000 10.000000 
R_rear_hand03 0.000000 0.000000 0.000000 0.000000 0.000000 0.000000 10.000000 
Rope4_Seg01 0.000000 0.000000 0.000000 0.000000 0.000000 0.000000 10.000000 
Rope4_Seg02 0.000000 0.000000 0.000000 0.000000 0.000000 0.000000 10.000000 
Rope4_Seg03 0.000000 0.000000 0.000000 0.000000 0.000000 0.000000 10.000000 
Rope4_Seg04 0.000000 0.000000 0.000000 0.000000 0.000000 0.000000 10.000000 
Rope4_Seg05 0.000000 0.000000 0.000000 0.000000 0.000000 0.000000 10.000000 
Rope4_Seg06 0.000000 0.000000 0.000000 0.000000 0.000000 0.000000 10.000000 
Rope4_Seg07 0.000000 0.000000 0.000000 0.000000 0.000000 0.000000 10.000000 
Rope4_Seg08 0.000000 0.000000 0.000000 0.000000 0.000000 0.000000 10.000000 
Rope4_Seg09 0.000000 0.000000 0.000000 0.000000 0.000000 0.000000 10.000000 
L_rear_hand01 0.000000 0.000000 0.000000 0.000000 0.000000 0.000000 10.000000 
L_rear_hand02 0.000000 0.000000 0.000000 0.000000 0.000000 0.000000 10.000000 
L_rear_hand03 0.000000 0.000000 0.000000 0.000000 0.000000 0.000000 10.000000 
#Beginning of Data. Separated by tabs
#Fr	Tx	Ty	Tz	Rx	Ry	Rz	SF
[MASTER]
24 0.000000 0.000000 0.000000 0.001660 0.001660 0.001660 0.000000
25 0.000000 0.000000 0.000000 0.001660 0.001660 0.001660 0.000000
[root]
24 -33.384087 5.947201 1446.199951 -91.740150 13.400836 -90.225014 1446.597412
25 -35.200977 8.086502 1450.533936 -91.740158 13.400836 -90.225014 1450.983521
[chest]
24 -84.512650 -34.090519 0.000000 -2.117274 0.462005 -179.268204 91.129311
25 -84.512650 -34.090519 0.000000 -2.117274 0.462005 -179.268204 91.129311
[L_mid_tent01]
24 27.299511 22.177458 -249.918259 -7.346669 24.890539 55.488865 252.381134
25 27.299511 22.177458 -249.918259 -7.125780 23.872648 56.141582 252.381134
[R_mid_tent01]
24 23.228794 24.509907 226.238495 -175.559448 -22.530563 53.997398 228.744751
25 23.228794 24.509907 226.238495 -175.505066 -20.340897 54.525513 228.744751
[spine01]
24 -0.361383 -0.195265 0.000000 -0.000001 -0.000007 22.052340 0.410763
25 -0.361383 -0.195265 0.000000 -0.000001 -0.000007 22.052340 0.410763
[Bip01_Neck]
24 165.484543 71.581718 0.000119 175.896118 1.177290 24.871183 180.302734
25 165.484543 71.581718 0.000119 175.896118 1.177290 24.871183 180.302734
[L_humerus]
24 -13.983130 -135.272980 -120.471481 175.474304 58.687801 -118.474754 181.680161
25 -13.983130 -135.272980 -120.471481 175.474304 58.687801 -118.474754 181.680161
[R_humerus]
24 -13.983309 -135.273102 125.287651 174.588181 -51.786880 -99.934280 184.909012
25 -13.983309 -135.273102 125.287651 174.588181 -51.786880 -99.934280 184.909012
[weapon_bone]
24 235.964890 -300.705902 0.000000 0.000000 -89.951546 -128.212341 382.234833
25 235.964890 -300.705902 0.000000 0.000000 -89.951546 -128.212341 382.234833
[Bip01_Head]
24 163.817291 272.852325 22.822264 1.693473 4.424704 -42.711670 319.069519
25 163.817291 272.852325 22.822264 1.693472 4.424703 -42.711670 319.069519
[eye_left_bone]
24 -24.626970 125.451866 -64.772606 0.000000 -90.000000 -99.840431 143.318359
25 -24.626970 125.451866 -64.772606 0.000000 -90.000000 -99.840431 143.318359
[eye_right_bone]
24 -24.626970 125.451866 64.327362 0.000000 -89.965736 80.156380 143.117676
25 -24.626970 125.451866 64.327362 0.000000 -89.965736 80.156380 143.117676
[L_forearm]
24 322.776093 0.000000 -0.000119 0.000442 -0.002305 -111.718391 322.776093
25 322.776093 0.000000 -0.000119 0.000442 -0.002305 -111.718391 322.776093
[L_front_hand]
24 241.149185 -0.042021 -3.300071 -179.659958 -2.242151 -0.019832 241.171753
25 241.149185 -0.042021 -3.300071 -179.659958 -2.242151 -0.019832 241.171753
[L_weapon_bone]
24 156.183838 0.000000 0.000000 0.000014 0.000007 0.000001 156.183838
25 156.183838 0.000000 0.000000 0.000014 0.000007 0.000001 156.183838
[L_front_hand01_01]
24 86.095154 20.947098 -0.655860 -0.366594 -0.477154 75.385574 88.609184
25 86.095154 20.947098 -0.655860 -0.366594 -0.477154 75.385574 88.609184
[L_front_hand02_01]
24 86.935165 -11.437475 24.513514 154.399796 -59.883835 -61.369587 91.046425
25 86.935165 -11.437475 24.513514 154.399796 -59.883835 -61.369587 91.046425
[L_front_hand03_01]
24 86.637497 -14.123976 -20.424902 -153.913849 58.118122 -62.702866 90.126129
25 86.637497 -14.123976 -20.424902 -153.913849 58.118122 -62.702866 90.126129
[L_front_hand01_02]
24 71.020905 -0.000179 0.000030 0.000334 -0.002323 -106.379684 71.020905
25 71.020905 -0.000179 0.000030 0.000334 -0.002323 -106.379684 71.020905
[L_front_hand02_02]
24 71.020927 -0.000119 0.000060 0.000334 -0.002323 -106.379684 71.020927
25 71.020927 -0.000119 0.000060 0.000334 -0.002323 -106.379684 71.020927
[L_front_hand03_02]
24 71.020905 -0.000060 0.000060 0.000334 -0.002323 -106.379684 71.020905
25 71.020905 -0.000060 0.000060 0.000334 -0.002323 -106.379684 71.020905
[R_forearm]
24 322.776428 -0.000060 0.000030 0.211305 0.032976 -99.623016 322.776428
25 322.776428 -0.000060 0.000030 0.211305 0.032976 -99.623016 322.776428
[R_front_hand]
24 238.847015 -0.006795 2.210259 -0.270529 1.703932 2.322530 238.857239
25 238.847015 -0.006795 2.210259 -0.270529 1.703932 2.322530 238.857239
[R_weapon_bone]
24 155.664093 0.002503 -0.000030 0.003487 0.001180 -90.988930 155.664078
25 155.664093 0.002503 -0.000030 0.003487 0.001180 -90.988930 155.664078
[R_front_hand01_01]
24 87.624611 14.231146 22.918642 -154.633499 -59.950619 61.746044 91.683487
25 87.624611 14.231146 22.918642 -154.633499 -59.950619 61.746044 91.683487
[R_front_hand02_01]
24 89.356956 14.367283 -19.491137 154.602661 58.302849 63.744389 92.579636
25 89.356956 14.367283 -19.491137 154.602661 58.302849 63.744389 92.579636
[R_front_hand03_01]
24 87.286232 -22.307278 -0.143439 0.162155 -0.423168 -75.767921 90.091743
25 87.286232 -22.307278 -0.143439 0.162155 -0.423168 -75.767921 90.091743
[R_front_hand01_02]
24 71.020905 0.000060 0.000119 0.002323 -0.000334 106.381714 71.020905
25 71.020905 0.000060 0.000119 0.002323 -0.000334 106.381714 71.020905
[R_front_hand02_02]
24 71.020844 -0.000030 -0.000119 0.002323 -0.000334 106.381714 71.020836
25 71.020844 -0.000030 -0.000119 0.002323 -0.000334 106.381714 71.020836
[R_front_hand03_02]
24 71.020905 0.000000 0.000030 0.002323 -0.000334 106.381714 71.020905
25 71.020905 0.000000 0.000030 0.002323 -0.000334 106.381714 71.020905
[null_rope01_connect]
24 328.732483 0.000000 -0.000238 -176.509216 -62.437054 -163.947128 328.732483
25 328.732483 0.000000 -0.000238 -177.263382 -63.464638 -163.731110 328.732483
[Rope1_Seg01]
24 0.000000 0.000000 0.000000 -143.926468 49.309860 -125.749573 0.000000
25 0.000000 0.000000 0.000000 -144.079407 49.179417 -125.792717 0.000000
[Rope1_Seg02]
24 139.999863 -0.000179 0.000000 31.979681 -6.226908 -12.634478 139.999863
25 139.999863 -0.000179 0.000000 30.703688 -5.812872 -12.126290 139.999863
[Rope1_Seg03]
24 139.999924 0.000060 -0.000060 23.394567 -9.712933 -6.388631 139.999924
25 139.999924 0.000060 -0.000060 23.083494 -9.042946 -6.345621 139.999924
[Rope1_Seg04]
24 139.999924 -0.000060 -0.000119 14.280583 -8.899096 -3.020101 139.999924
25 139.999924 -0.000060 -0.000119 13.813021 -7.970291 -2.952898 139.999924
[Rope1_Seg05]
24 139.999832 0.000119 -0.000060 4.740232 -5.554237 0.951079 139.999832
25 139.999832 0.000119 -0.000060 5.468722 -5.650940 0.638761 139.999832
[Rope1_Seg06]
24 139.999954 0.000119 -0.000060 0.436922 -3.752999 3.486390 139.999954
25 139.999954 0.000119 -0.000060 1.725625 -4.866379 3.131860 139.999954
[Rope1_Seg07]
24 139.999985 0.000060 0.000000 -1.138169 -3.322786 5.311117 139.999985
25 139.999985 0.000060 0.000000 0.288564 -5.021755 4.866682 139.999985
[Rope1_Seg09]
24 121.602913 0.000119 -0.000089 -89.793175 -1.359789 0.847147 121.602913
25 121.602913 0.000119 -0.000089 -89.793175 -1.359789 0.847147 121.602913
[L_mid_hand01]
24 103.859421 1.038730 8.195221 106.855484 -31.239275 -9.461397 104.187431
25 103.859421 1.038730 8.195221 106.855484 -31.239275 -9.461397 104.187431
[L_mid_hand02]
24 105.572853 -4.139662 -10.864139 -142.331345 25.752670 -28.774628 106.211075
25 105.572853 -4.139662 -10.864139 -142.331345 25.752670 -28.774628 106.211075
[L_mid_hand03]
24 104.641464 17.579376 -3.913581 -16.122810 9.734291 34.223598 106.179977
25 104.641464 17.579376 -3.913581 -16.122810 9.734291 34.223598 106.179977
[null_rope02_connect]
24 328.732849 0.000179 -0.000119 -167.579330 68.677689 -9.187765 328.732849
25 328.732849 0.000179 -0.000119 -169.389923 70.823174 -10.568062 328.732849
[Rope2_Seg01]
24 0.000000 0.000000 0.000000 -179.323608 53.216183 -56.994583 0.000000
25 0.000000 0.000000 0.000000 179.567429 53.273296 -57.735897 0.000000
[Rope2_Seg02]
24 139.999741 -0.000060 -0.000119 -11.404894 6.395428 5.692591 139.999756
25 139.999741 -0.000060 -0.000119 -10.088197 6.767157 4.333961 139.999756
[Rope2_Seg03]
24 140.000107 0.000030 0.000000 -17.123966 9.859794 6.164123 140.000107
25 140.000107 0.000030 0.000000 -14.680020 10.325799 3.370493 140.000107
[Rope2_Seg04]
24 139.999802 0.000000 -0.000060 -21.340057 3.309243 13.434982 139.999802
25 139.999802 0.000000 -0.000060 -23.567905 5.687183 10.422322 139.999802
[Rope2_Seg05]
24 139.999985 -0.000060 0.000119 -1.932852 -27.174402 11.794575 139.999985
25 139.999985 -0.000060 0.000119 -5.932363 -27.650917 16.318970 139.999985
[Rope2_Seg06]
24 139.999893 -0.000030 -0.000119 -0.718127 -11.873572 5.672583 139.999893
25 139.999893 -0.000030 -0.000119 -1.309210 -13.391850 7.246403 139.999893
[Rope2_Seg07]
24 139.999893 0.000060 -0.000060 -0.277278 -5.697762 3.016608 139.999893
25 139.999893 0.000060 -0.000060 -0.411020 -6.178568 3.605387 139.999893
[Rope2_Seg09]
24 121.338966 0.000089 -0.000060 33.793236 -1.359788 -0.847141 121.338966
25 121.338966 0.000089 -0.000060 33.793236 -1.359788 -0.847141 121.338966
[R_mid_hand01]
24 104.680779 11.144459 -10.335981 -41.523792 25.424656 28.595957 105.778534
25 104.680779 11.144459 -10.335981 -41.523792 25.424656 28.595957 105.778534
[R_mid_hand02]
24 104.070427 2.443552 8.231699 72.847389 -32.746803 10.013901 104.424065
25 104.070427 2.443552 8.231699 72.847389 -32.746803 10.013901 104.424065
[R_mid_hand03]
24 106.028137 -11.221827 -5.996406 -167.901306 10.259192 -37.009720 106.788818
25 106.028137 -11.221827 -5.996406 -167.901306 10.259192 -37.009720 106.788818
[spine02]
24 129.756927 0.001550 0.000119 0.360061 -4.044797 -12.915058 129.756927
25 129.756927 0.001550 0.000119 0.360061 -4.044797 -12.915058 129.756927
[spine03]
24 78.613846 0.087372 -4.898873 1.896495 3.831288 16.473045 78.766380
25 78.613846 0.087372 -4.898873 1.896495 3.831288 16.473045 78.766380
[pelvis]
24 169.435242 0.051022 0.000000 -0.060465 -0.180225 14.087930 169.435257
25 169.435242 0.051022 0.000000 -0.060465 -0.180225 14.087930 169.435257
[null_rope03_connect]
24 -1.257226 -2.466202 137.391083 -159.503860 -89.311867 -163.586563 137.418976
25 -1.257226 -2.466202 137.391083 -159.503860 -89.311867 -163.586563 137.418976
[null_rope04_connect]
24 -1.259640 -2.480268 -137.844437 -159.503860 -89.311867 -163.586563 137.872513
25 -1.259640 -2.480268 -137.844437 -159.503860 -89.311867 -163.586563 137.872513
[Rope3_Seg01]
24 0.000000 0.000000 0.000000 -144.557953 24.757662 -111.139252 0.000000
25 0.000000 0.000000 0.000000 -143.411621 23.007328 -111.572525 0.000000
[Rope3_Seg02]
24 139.999924 -0.000119 0.000060 -0.606753 -6.628205 -6.883247 139.999924
25 139.999924 -0.000119 0.000060 -1.220515 -7.415894 -6.256670 139.999924
[Rope3_Seg03]
24 139.999924 -0.000119 0.000119 -0.011392 -9.137348 -9.783370 139.999924
25 139.999924 -0.000119 0.000119 -0.497516 -10.015562 -8.890293 139.999924
[Rope3_Seg04]
24 139.999924 0.000119 0.000000 2.278238 -16.301954 -17.281759 139.999924
25 139.999924 0.000119 0.000000 1.818135 -16.935600 -15.062457 139.999924
[Rope3_Seg05]
24 139.999924 -0.000238 0.000060 -0.094768 0.514708 -1.645755 139.999924
25 139.999924 -0.000238 0.000060 -0.003621 -0.230901 -2.288342 139.999924
[Rope3_Seg06]
24 139.999893 -0.000119 -0.000060 1.469420 13.533106 10.570231 139.999893
25 139.999893 -0.000119 -0.000060 0.937721 12.246069 7.414380 139.999893
[Rope3_Seg07]
24 139.999771 0.000060 -0.000119 1.210331 6.192282 4.109774 139.999771
25 139.999771 0.000060 -0.000119 0.966398 5.330033 2.532356 139.999771
[Rope3_Seg08]
24 139.999985 -0.000060 0.000000 1.126239 3.945723 2.470527 139.999985
25 139.999985 -0.000060 0.000000 0.947082 3.412565 1.504434 139.999985
[Rope3_Seg09]
24 90.185997 -0.000179 -0.000060 89.793228 -1.359877 -0.847183 90.185997
25 90.185997 -0.000179 -0.000060 89.793228 -1.359877 -0.847183 90.185997
[R_rear_hand01]
24 103.366196 -6.073594 -10.757982 -161.551193 16.666374 -30.088671 104.101845
25 103.366196 -6.073594 -10.757982 -161.551193 16.666374 -30.088671 104.101845
[R_rear_hand02]
24 100.509819 12.039542 -7.992327 -34.280552 19.289745 28.875523 101.543350
25 100.509819 12.039542 -7.992327 -34.280552 19.289745 28.875523 101.543350
[R_rear_hand03]
24 101.539970 5.215704 5.435467 83.366440 -30.933914 7.284830 101.819031
25 101.539970 5.215704 5.435467 83.366440 -30.933914 7.284830 101.819031
[Rope4_Seg01]
24 0.000010 0.000038 -0.000114 39.541271 23.336496 -122.532501 0.000121
25 0.000010 0.000038 -0.000114 38.829884 24.132162 -123.709320 0.000121
[Rope4_Seg02]
24 139.999985 0.000060 0.000119 0.817712 9.282193 7.103743 139.999985
25 139.999985 0.000060 0.000119 0.865455 8.558202 7.217926 139.999985
[Rope4_Seg03]
24 139.999924 0.000000 -0.000238 0.920275 14.119843 10.901191 139.999924
25 139.999924 0.000000 -0.000238 0.866868 13.245249 11.208044 139.999924
[Rope4_Seg04]
24 139.999985 0.000000 0.000119 -0.250409 24.121613 20.366331 139.999985
25 139.999985 0.000000 0.000119 -0.725717 23.456558 21.600700 139.999985
[Rope4_Seg05]
24 139.999802 -0.000060 -0.000119 -0.330624 2.380702 1.627278 139.999802
25 139.999802 -0.000060 -0.000119 -1.184777 3.293361 2.976320 139.999802
[Rope4_Seg06]
24 139.999924 0.000000 0.000060 6.261529 -13.039757 -13.392981 139.999924
25 139.999924 0.000000 0.000060 6.352535 -10.996120 -12.629852 139.999924
[Rope4_Seg07]
24 139.999802 0.000000 0.000000 1.445361 -5.867418 -5.145496 139.999802
25 139.999802 0.000000 0.000000 1.450549 -4.625546 -4.473521 139.999802
[Rope4_Seg08]
24 139.999924 0.000000 0.000119 -0.951638 -3.207352 -2.717983 139.999924
25 139.999924 0.000000 0.000119 -0.916275 -2.525432 -2.352894 139.999924
[Rope4_Seg09]
24 90.185791 0.000060 0.000060 -135.617828 2.228885 0.850567 90.185791
25 90.185791 0.000060 0.000060 -135.617828 2.228885 0.850567 90.185791
[L_rear_hand01]
24 101.696655 -8.392275 -7.654577 -34.454281 -18.946800 151.655121 102.329041
25 101.696655 -8.392275 -7.654577 -34.454281 -18.946800 151.655121 102.329041
[L_rear_hand02]
24 102.726799 -1.568258 5.773216 83.407906 30.330435 172.796509 102.900848
25 102.726799 -1.568258 5.773216 83.407906 30.330435 172.796509 102.900848
[L_rear_hand03]
24 104.552910 9.721220 -10.420293 -161.379868 -16.473232 -150.512238 105.519653
25 104.552910 9.721220 -10.420293 -161.379868 -16.473232 -150.512238 105.519653
